<?xml version="1.0" ?><svg id="object" viewBox="0 0 32 32" xmlns="http://www.w3.org/2000/svg"><defs><style>.cls-1{fill:#ffd599;}.cls-2{fill:#e4ab7b;}.cls-3{fill:#d6b5b0;}.cls-4{fill:#bf9e99;}</style></defs><title/><path class="cls-1" d="M22,19a1,1,0,0,1-1-1V10a1,1,0,0,1,2,0v8A1,1,0,0,1,22,19Z"/><path class="cls-2" d="M22,19a1,1,0,0,1-1-1V10a1,1,0,0,1,2,0v8A1,1,0,0,1,22,19Z"/><path class="cls-1" d="M10,19a1,1,0,0,1-1-1V10a1,1,0,0,1,2,0v8A1,1,0,0,1,10,19Z"/><path class="cls-1" d="M9,31a1,1,0,0,1-1-1V22a1,1,0,0,1,2,0v8A1,1,0,0,1,9,31Z"/><path class="cls-1" d="M23,31a1,1,0,0,1-1-1V22a1,1,0,0,1,2,0v8A1,1,0,0,1,23,31Z"/><path class="cls-2" d="M23,31a1,1,0,0,1-1-1V22a1,1,0,0,1,2,0v8A1,1,0,0,1,23,31Z"/><rect class="cls-3" height="10" rx="2" ry="2" width="22" x="5" y="1"/><rect class="cls-3" height="6" rx="1" ry="1" width="22" x="5" y="17"/><path class="cls-4" d="M27,3V9a2,2,0,0,1-2,2H16V1h9A2,2,0,0,1,27,3Z"/><path class="cls-4" d="M27,18v4a1,1,0,0,1-1,1H16V17H26A1,1,0,0,1,27,18Z"/></svg>