<?xml version="1.0" ?><svg id="object" viewBox="0 0 32 32" xmlns="http://www.w3.org/2000/svg"><defs><style>.cls-1{fill:#c9c1f5;}.cls-2{fill:#afbdd6;}.cls-3{fill:#fff27d;}.cls-4{fill:#96d7ff;}.cls-5{fill:#86c3ef;}.cls-6{fill:#97c1ff;}.cls-7{fill:#82bce4;}.cls-8{fill:#798bc6;}.cls-9{fill:#667dba;}</style></defs><title/><path class="cls-1" d="M16,27a1,1,0,0,1-.71-.29,1,1,0,0,1,0-1.42l9.36-9.35L15.3,4.64a1,1,0,1,1,1.54-1.28l9.93,12a1,1,0,0,1-.06,1.35l-10,10A1,1,0,0,1,16,27Z"/><path class="cls-2" d="M26.71,16.71l-10,10A1,1,0,0,1,16,27V24.58l8.65-8.64L17.79,7.65l-.69-.84L16,5.49V3a1,1,0,0,1,.84.36l1.8,2.18,8.13,9.82A1,1,0,0,1,26.71,16.71Z"/><path class="cls-3" d="M12.54,11.75,8.29,7.51a1,1,0,0,0-1.41,0l-.71.7a4,4,0,0,0,0,5.66,4,4,0,0,0,5.66,0l.71-.71A1,1,0,0,0,12.54,11.75Z"/><path class="cls-4" d="M18.19,1.85a3.08,3.08,0,0,0-4.24,0h0A3,3,0,0,0,16.07,7a3,3,0,0,0,3-3A3,3,0,0,0,18.19,1.85Z"/><path class="cls-5" d="M19.07,4a3,3,0,0,1-.43,1.54,3,3,0,0,1-1.06,1,2.09,2.09,0,0,1-.48.22,2.73,2.73,0,0,1-1,.19H16V1a3,3,0,0,1,3.07,3Z"/><path class="cls-6" d="M16.07,4A6,6,0,0,0,7.59,4L5.46,6.09a1,1,0,0,0,0,1.42l7.08,7.07a1,1,0,0,0,.7.29,1,1,0,0,0,.71-.29l2.12-2.12A6,6,0,0,0,16.07,4Z"/><path class="cls-7" d="M16.07,12.46l-.07.07V3.91l.07.06a5.81,5.81,0,0,1,1.51,2.59,4.86,4.86,0,0,1,.21,1.06A6,6,0,0,1,16.07,12.46Z"/><path class="cls-8" d="M26.89,29.55l-2-4A1,1,0,0,0,24,25H8a1,1,0,0,0-.89.55l-2,4A1,1,0,0,0,6,31H26a1,1,0,0,0,.89-1.45Z"/><path class="cls-9" d="M24.89,25.55A1,1,0,0,0,24,25H16v6H26a1,1,0,0,0,.89-1.45Z"/></svg>