<?xml version="1.0" ?><!DOCTYPE svg  PUBLIC '-//W3C//DTD SVG 1.1//EN'  'http://www.w3.org/Graphics/SVG/1.1/DTD/svg11.dtd'><svg height="100%" style="fill-rule:evenodd;clip-rule:evenodd;stroke-linejoin:round;stroke-miterlimit:2;" version="1.1" viewBox="0 0 32 32" width="100%" xml:space="preserve" xmlns="http://www.w3.org/2000/svg" xmlns:serif="http://www.serif.com/" xmlns:xlink="http://www.w3.org/1999/xlink"><path d="M11.4,26.457c-0.012,0.14 0.035,0.278 0.13,0.381c0.094,0.103 0.228,0.162 0.368,0.162l14.602,0c0.828,-0 1.5,-0.672 1.5,-1.5l-0,-16.53c-0,-0.829 -0.672,-1.5 -1.5,-1.5l-13,-0c-0.259,-0 -0.476,0.198 -0.498,0.457l-1.602,18.53Z" style="fill:#8ac4d0;"/><path d="M13.5,7.47l12.5,-0c0.828,-0 1.5,0.671 1.5,1.5l-0,16.53c-0,0.828 -0.672,1.5 -1.5,1.5l0.5,0c0.828,-0 1.5,-0.672 1.5,-1.5l-0,-16.53c-0,-0.829 -0.672,-1.5 -1.5,-1.5l-13,-0Z" style="fill:#9ee0ee;"/><path d="M22,8.012c0,-0.276 -0.224,-0.5 -0.5,-0.5l-5,-0c-0.276,-0 -0.5,0.224 -0.5,0.5l0,18.488c0,0.276 0.224,0.5 0.5,0.5l5,-0c0.276,-0 0.5,-0.224 0.5,-0.5l0,-18.488Z" style="fill:#28527a;"/><path d="M21.5,7.512l-0.5,-0c0.276,-0 0.5,0.224 0.5,0.5l0,18.488c-0,0.276 -0.224,0.5 -0.5,0.5l0.5,-0c0.276,-0 0.5,-0.224 0.5,-0.5l0,-18.488c0,-0.276 -0.224,-0.5 -0.5,-0.5Z" style="fill:#3d668e;"/><path d="M14.004,8.748c0,-2.614 -2.233,-4.75 -5.001,-4.75c-2.772,-0 -5.005,1.965 -5.005,4.583l0.002,14.786c0,0.134 0.054,0.263 0.149,0.356c0.095,0.094 0.224,0.146 0.358,0.144l9.004,-0.128c0.274,-0.003 0.493,-0.226 0.493,-0.499l0,-14.492Z" style="fill:#28527a;"/><path d="M5.39,23.855c-0.089,-0.021 -0.173,-0.066 -0.239,-0.132c-0.096,-0.093 -0.149,-0.222 -0.149,-0.356l-0.002,-14.786c-0,-2.455 1.963,-4.336 4.493,-4.561c-0.161,-0.015 -0.324,-0.022 -0.49,-0.022c-2.772,-0 -5.005,1.965 -5.005,4.583l0.002,14.786c0,0.134 0.054,0.263 0.149,0.356c0.095,0.094 0.224,0.146 0.358,0.144l0.883,-0.012Z" style="fill:#063c6f;"/><path d="M8.999,18.5c-2.768,0 -5.001,2.137 -5.001,4.75c0,2.613 2.233,4.75 5.001,4.75c2.768,-0 5.001,-2.137 5.001,-4.75c0,-2.613 -2.233,-4.75 -5.001,-4.75Z" style="fill:#fbeeac;"/><path d="M9.498,27.977c-2.532,-0.239 -4.502,-2.272 -4.502,-4.727c-0,-2.455 1.97,-4.488 4.502,-4.727c-0.164,-0.015 -0.331,-0.023 -0.499,-0.023c-2.768,0 -5.001,2.137 -5.001,4.75c0,2.613 2.233,4.75 5.001,4.75c0.168,-0 0.335,-0.008 0.499,-0.023Z" style="fill:#e1d286;"/><circle cx="9.003" cy="23.24" r="1.997" style="fill:#8ac4d0;"/></svg>